<svg width="1920" height="1080" viewBox="0 0 1920 1080" fill="none" xmlns="http://www.w3.org/2000/svg">
<g clip-path="url(#clip0_1261_2320)">
<path d="M570.622 242.611C605.039 230.212 644.436 228.499 687.151 233.912C772.616 244.743 871.062 284.052 968.945 322.86C1066.75 361.636 1163.99 399.917 1246.84 408.48C1288.28 412.764 1326.2 409.623 1358.83 395.331C1390.47 381.472 1417.04 357.164 1437 319.155V744.906C1415.82 787.714 1388.62 815.021 1356.82 830.698C1324.96 846.407 1288.39 850.488 1248.48 846.658C1168.6 838.994 1075.63 799.69 980.805 759.054C886.062 718.454 789.485 676.537 702.625 663.888C659.177 657.56 618.094 658.544 580.848 670.715C544.381 682.631 511.65 705.253 484 742.115V315.303C506.867 277.989 536.301 254.976 570.622 242.611Z" stroke="white" stroke-width="2"/>
<path d="M1610.62 242.611C1645.04 230.212 1684.44 228.499 1727.15 233.912C1812.62 244.743 1911.06 284.052 2008.95 322.86C2106.75 361.636 2203.99 399.917 2286.84 408.48C2328.28 412.764 2366.2 409.623 2398.83 395.331C2430.47 381.472 2457.04 357.164 2477 319.155V744.906C2455.82 787.714 2428.62 815.021 2396.82 830.698C2364.96 846.407 2328.39 850.488 2288.48 846.658C2208.6 838.994 2115.63 799.69 2020.8 759.054C1926.06 718.454 1829.48 676.537 1742.62 663.888C1699.18 657.56 1658.09 658.544 1620.85 670.715C1584.38 682.631 1551.65 705.253 1524 742.115V315.303C1546.87 277.989 1576.3 254.976 1610.62 242.611Z" stroke="white" stroke-width="2"/>
<path d="M-469.378 242.611C-434.961 230.212 -395.564 228.499 -352.849 233.912C-267.384 244.743 -168.938 284.052 -71.0547 322.86C26.7461 361.636 123.994 399.917 206.84 408.48C248.282 412.764 286.205 409.623 318.83 395.331C350.467 381.472 377.042 357.164 397 319.155V744.906C375.823 787.714 348.618 815.021 316.821 830.698C284.961 846.407 248.394 850.488 208.481 846.658C128.604 838.994 35.6343 799.69 -59.1953 759.054C-153.938 718.454 -250.515 676.537 -337.375 663.888C-380.823 657.56 -421.906 658.544 -459.152 670.715C-495.619 682.631 -528.35 705.253 -556 742.115V315.303C-533.133 277.989 -503.699 254.976 -469.378 242.611Z" stroke="white" stroke-width="2"/>
<circle cx="1674.5" cy="386.5" r="119.5" stroke="white" stroke-width="2"/>
<circle cx="234.5" cy="660.5" r="119.5" stroke="white" stroke-width="2"/>
</g>
<defs>
<clipPath id="clip0_1261_2320">
<rect width="1920" height="1080" fill="white"/>
</clipPath>
</defs>
</svg>
