<svg width="454" height="385" viewBox="0 0 454 385" fill="none" xmlns="http://www.w3.org/2000/svg">
<g clip-path="url(#clip0_35_4230)">
<path d="M307.983 51.6399C310.787 55.6427 310.787 60.9688 307.983 64.9716L273.937 113.436L250.695 146.517L227.387 179.698L136.746 308.731L86.6163 380.087C84.4554 383.164 80.942 385 77.181 385H11.5627C2.20991 385 -3.26653 374.431 2.12744 366.756L42.8873 308.731L180.458 112.873L203.766 79.6928L227.008 46.6115L256.303 4.91257C260.906 -1.63752 270.572 -1.63752 275.174 4.91257L287.842 22.9419L308 51.6399H307.983Z" fill="white"/>
<path d="M442.437 385H123.434C114.081 385 108.605 374.431 113.999 366.756L151.311 313.644C153.472 310.567 156.986 308.731 160.747 308.731H295.794C305.146 308.731 310.623 298.162 305.229 290.487L284.131 260.433L260.131 226.276L241.095 199.15C238.291 195.147 238.291 189.821 241.095 185.818L259.718 159.303L282.96 126.222L312.256 84.5229C316.858 77.9728 326.524 77.9728 331.127 84.5229L345.428 104.868L364.728 132.375C367.532 136.378 367.532 141.704 364.728 145.707L335.366 187.505C332.562 191.508 332.562 196.834 335.366 200.837L411.145 308.715L451.905 366.739C457.299 374.414 451.823 384.984 442.47 384.984L442.437 385Z" fill="white"/>
</g>
<defs>
<clipPath id="clip0_35_4230">
<rect width="454" height="385" fill="white"/>
</clipPath>
</defs>
</svg>
