<svg width="1122" height="404" viewBox="0 0 1122 404" fill="none" xmlns="http://www.w3.org/2000/svg">
<path d="M112.4 36.6L111.384 37.7035L112.4 36.6ZM112.4 101.6L113.416 102.704L113.425 102.695L112.4 101.6ZM41 113.2V111.7H39.5V113.2H41ZM41 93H39.5V94.5H41V93ZM41 45.2V43.7H39.5V45.2H41ZM28.2 166.1C24.1765 166.1 21.4316 165.065 19.6769 163.256C17.9138 161.438 16.9 158.58 16.9 154.4H13.9C13.9 159.02 15.0195 162.762 17.5232 165.344C20.0351 167.935 23.6902 169.1 28.2 169.1V166.1ZM16.9 154.4V38H13.9V154.4H16.9ZM16.9 38C16.9 33.8979 17.9245 31.0968 19.7107 29.3107C21.4968 27.5245 24.2979 26.5 28.4 26.5V23.5C23.8355 23.5 20.1365 24.6421 17.5893 27.1893C15.0422 29.7365 13.9 33.4354 13.9 38H16.9ZM28.4 26.5H76.6V23.5H28.4V26.5ZM76.6 26.5C91.8257 26.5 103.347 30.304 111.384 37.7035L113.416 35.4964C104.653 27.4293 92.3076 23.5 76.6 23.5V26.5ZM111.384 37.7035C119.411 45.0931 123.5 55.4555 123.5 69H126.5C126.5 54.8112 122.189 43.5735 113.416 35.4964L111.384 37.7035ZM123.5 69C123.5 82.5436 119.411 92.9793 111.375 100.505L113.425 102.695C122.189 94.4874 126.5 83.1897 126.5 69H123.5ZM111.384 100.496C103.347 107.896 91.8257 111.7 76.6 111.7V114.7C92.3076 114.7 104.653 110.771 113.416 102.704L111.384 100.496ZM76.6 111.7H41V114.7H76.6V111.7ZM39.5 113.2V154.4H42.5V113.2H39.5ZM39.5 154.4C39.5 158.58 38.4862 161.438 36.7232 163.256C34.9684 165.065 32.2235 166.1 28.2 166.1V169.1C32.7098 169.1 36.3649 167.935 38.8769 165.344C41.3805 162.762 42.5 159.02 42.5 154.4H39.5ZM41 94.5H72.6V91.5H41V94.5ZM72.6 94.5C81.9838 94.5 89.3017 92.4646 94.2843 88.1319C99.3069 83.7644 101.7 77.29 101.7 69H98.7C98.7 76.71 96.4931 82.2356 92.3157 85.8681C88.0983 89.5354 81.6162 91.5 72.6 91.5V94.5ZM101.7 69C101.7 60.7727 99.3044 54.347 94.2796 50.014C89.2972 45.7176 81.9813 43.7 72.6 43.7V46.7C81.6187 46.7 88.1028 48.649 92.3204 52.286C96.4956 55.8863 98.7 61.3606 98.7 69H101.7ZM72.6 43.7H41V46.7H72.6V43.7ZM39.5 45.2V93H42.5V45.2H39.5ZM159.916 85.4H158.416L161.299 85.9792L159.916 85.4ZM190.716 66.2L190.842 67.6946L190.866 67.6927L190.889 67.69L190.716 66.2ZM200.316 76L198.822 76.1383L198.822 76.1409L200.316 76ZM189.916 87.8L190.051 89.2938L190.062 89.2929L190.073 89.2917L189.916 87.8ZM185.516 88.2L185.38 86.7061L185.37 86.7071L185.516 88.2ZM148.316 166.1C144.28 166.1 141.529 165.092 139.776 163.339C138.023 161.587 137.016 158.835 137.016 154.8H134.016C134.016 159.298 135.141 162.947 137.655 165.461C140.169 167.975 143.818 169.1 148.316 169.1V166.1ZM137.016 154.8V79.2H134.016V154.8H137.016ZM137.016 79.2C137.016 75.2193 137.98 72.5115 139.643 70.7934C141.298 69.0843 143.893 68.1 147.716 68.1V65.1C143.405 65.1 139.9 66.2157 137.488 68.7066C135.085 71.1885 134.016 74.7807 134.016 79.2H137.016ZM147.716 68.1C151.539 68.1 154.133 69.0843 155.788 70.7934C157.452 72.5115 158.416 75.2193 158.416 79.2H161.416C161.416 74.7807 160.346 71.1885 157.943 68.7066C155.531 66.2157 152.026 65.1 147.716 65.1V68.1ZM158.416 79.2V85.4H161.416V79.2H158.416ZM161.299 85.9792C165.822 75.174 175.488 68.9958 190.842 67.6946L190.589 64.7054C174.476 66.0708 163.609 72.6927 158.532 84.8208L161.299 85.9792ZM190.889 67.69C193.428 67.3948 195.152 67.9827 196.344 69.1997C197.598 70.4794 198.503 72.6941 198.822 76.1383L201.809 75.8617C201.461 72.1059 200.434 69.0872 198.487 67.1003C196.479 65.0507 193.737 64.3386 190.542 64.71L190.889 67.69ZM198.822 76.1409C199.131 79.4134 198.463 81.7002 197.09 83.2582C195.699 84.837 193.354 85.9298 189.759 86.3082L190.073 89.2917C194.078 88.8702 197.266 87.5964 199.341 85.2418C201.434 82.8664 202.167 79.6533 201.809 75.8591L198.822 76.1409ZM189.78 86.3062L185.38 86.7062L185.651 89.6938L190.051 89.2938L189.78 86.3062ZM185.37 86.7071C176.959 87.5277 170.423 90.1136 165.992 94.6522C161.545 99.2079 159.416 105.528 159.416 113.4H162.416C162.416 106.072 164.386 100.592 168.139 96.7478C171.909 92.8863 177.673 90.4723 185.661 89.6929L185.37 86.7071ZM159.416 113.4V154.8H162.416V113.4H159.416ZM159.416 154.8C159.416 158.841 158.421 161.596 156.697 163.348C154.976 165.095 152.278 166.1 148.316 166.1V169.1C152.753 169.1 156.355 167.971 158.835 165.452C161.31 162.938 162.416 159.292 162.416 154.8H159.416ZM225.873 161.8L225.185 163.133L225.873 161.8ZM207.273 144.2L205.965 144.934L205.97 144.943L205.975 144.952L207.273 144.2ZM207.073 90.6L205.765 89.8657L205.761 89.8745L205.756 89.8833L207.073 90.6ZM224.473 72.8L225.228 74.0965L225.235 74.0923L224.473 72.8ZM282.673 79.4L281.564 80.409L281.572 80.4181L282.673 79.4ZM224.873 122.8V121.3H223.205L223.382 122.959L224.873 122.8ZM266.473 147.8L266.75 149.274L266.767 149.271L266.785 149.267L266.473 147.8ZM278.873 143.2L279.598 144.513L279.611 144.506L279.623 144.499L278.873 143.2ZM287.673 141.4L287.199 142.823L287.235 142.835L287.272 142.845L287.673 141.4ZM292.673 145.6L291.299 146.201L291.315 146.236L291.332 146.271L292.673 145.6ZM293.073 152.8L291.637 152.369L291.629 152.394L291.623 152.418L293.073 152.8ZM287.473 159.4L286.694 158.119L286.684 158.124L286.675 158.13L287.473 159.4ZM271.273 166L271.599 167.464L271.611 167.462L271.622 167.459L271.273 166ZM233.073 90L234.134 91.0607L233.073 90ZM224.873 108.4L223.384 108.22L223.182 109.9H224.873V108.4ZM274.073 108.4V109.9H275.675L275.57 108.302L274.073 108.4ZM267.273 89.8L266.147 90.7902L266.163 90.8083L266.179 90.8259L267.273 89.8ZM254.473 166.5C243.592 166.5 234.306 164.468 226.562 160.467L225.185 163.133C233.441 167.398 243.221 169.5 254.473 169.5V166.5ZM226.562 160.467C218.81 156.462 212.824 150.794 208.572 143.448L205.975 144.952C210.523 152.806 216.937 158.871 225.185 163.133L226.562 160.467ZM208.581 143.466C204.463 136.13 202.373 127.393 202.373 117.2H199.373C199.373 127.807 201.551 137.07 205.965 144.934L208.581 143.466ZM202.373 117.2C202.373 107.274 204.396 98.6618 208.391 91.3167L205.756 89.8833C201.484 97.7382 199.373 106.859 199.373 117.2H202.373ZM208.381 91.3343C212.521 83.9611 218.132 78.2247 225.228 74.0965L223.719 71.5035C216.148 75.9086 210.159 82.0389 205.765 89.8657L208.381 91.3343ZM225.235 74.0923C232.45 69.8407 240.649 67.7 249.873 67.7V64.7C240.164 64.7 231.43 66.9593 223.712 71.5077L225.235 74.0923ZM249.873 67.7C263.394 67.7 273.896 71.9744 281.564 80.409L283.783 78.391C275.451 69.2256 264.086 64.7 249.873 64.7V67.7ZM281.572 80.4181C289.386 88.8723 293.373 100.472 293.373 115.4H296.373C296.373 99.9278 292.228 87.5277 283.775 78.3819L281.572 80.4181ZM293.373 115.4C293.373 117.516 292.707 118.876 291.558 119.762C290.334 120.705 288.323 121.3 285.273 121.3V124.3C288.624 124.3 291.413 123.661 293.389 122.138C295.44 120.557 296.373 118.217 296.373 115.4H293.373ZM285.273 121.3H224.873V124.3H285.273V121.3ZM223.382 122.959C224.342 131.944 227.42 138.893 232.787 143.58C238.146 148.26 245.577 150.5 254.873 150.5V147.5C246.036 147.5 239.401 145.373 234.76 141.32C230.126 137.273 227.271 131.123 226.365 122.641L223.382 122.959ZM254.873 150.5C258.453 150.5 262.414 150.087 266.75 149.274L266.197 146.326C262 147.113 258.228 147.5 254.873 147.5V150.5ZM266.785 149.267C271.327 148.304 275.6 146.719 279.598 144.513L278.149 141.887C274.414 143.947 270.42 145.429 266.162 146.333L266.785 149.267ZM279.623 144.499C282.931 142.591 285.392 142.221 287.199 142.823L288.148 139.977C285.155 138.979 281.749 139.809 278.124 141.901L279.623 144.499ZM287.272 142.845C289.272 143.401 290.561 144.513 291.299 146.201L294.048 144.999C292.92 142.42 290.875 140.732 288.075 139.955L287.272 142.845ZM291.332 146.271C292.199 148.006 292.347 150.003 291.637 152.369L294.51 153.231C295.4 150.264 295.281 147.461 294.015 144.929L291.332 146.271ZM291.623 152.418C291.087 154.455 289.554 156.378 286.694 158.119L288.253 160.681C291.527 158.689 293.727 156.211 294.524 153.182L291.623 152.418ZM286.675 158.13C282.165 160.965 276.921 163.107 270.925 164.541L271.622 167.459C277.892 165.96 283.448 163.702 288.272 160.67L286.675 158.13ZM270.948 164.536C265.036 165.849 259.546 166.5 254.473 166.5V169.5C259.801 169.5 265.511 168.817 271.599 167.464L270.948 164.536ZM250.873 81.7C243.204 81.7 236.869 84.0836 232.013 88.9393L234.134 91.0607C238.345 86.8497 243.876 84.7 250.873 84.7V81.7ZM232.013 88.9393C227.194 93.7578 224.349 100.227 223.384 108.22L226.363 108.58C227.265 101.106 229.886 95.3089 234.134 91.0607L232.013 88.9393ZM224.873 109.9H274.073V106.9H224.873V109.9ZM275.57 108.302C275.023 99.9568 272.684 93.3777 268.368 88.7741L266.179 90.8259C269.863 94.7556 272.057 100.576 272.577 108.498L275.57 108.302ZM268.4 88.8098C264.19 84.0193 258.274 81.7 250.873 81.7V84.7C257.606 84.7 262.623 86.7807 266.147 90.7902L268.4 88.8098ZM333.272 202L332.978 203.471L332.983 203.472L333.272 202ZM315.072 195.8L315.756 194.465L315.749 194.462L315.743 194.458L315.072 195.8ZM309.272 189.6L307.808 189.925L307.814 189.954L307.821 189.982L309.272 189.6ZM310.072 182.6L311.429 183.239L310.072 182.6ZM314.872 177.6L314.301 176.213L314.25 176.234L314.201 176.258L314.872 177.6ZM322.072 178L322.743 176.658L322.728 176.651L322.714 176.644L322.072 178ZM338.672 183.6L338.93 182.122L338.915 182.12L338.9 182.117L338.672 183.6ZM379.072 145.8H380.572L377.737 145.116L379.072 145.8ZM366.072 158.8L365.354 157.483L365.347 157.487L365.341 157.49L366.072 158.8ZM323.872 157.6L323.07 158.868L323.079 158.874L323.089 158.879L323.872 157.6ZM308.672 140.4L307.325 141.061L308.672 140.4ZM308.672 89.4L310.014 90.0708L310.018 90.061L308.672 89.4ZM323.872 72.4L324.655 73.6793L324.665 73.6735L324.674 73.6676L323.872 72.4ZM366.072 70.8L366.779 69.4773L366.072 70.8ZM378.672 83.4L377.33 84.0708L380.172 83.4H378.672ZM381.872 69.8L380.844 68.7077L380.827 68.7233L380.811 68.7393L381.872 69.8ZM390.872 192L389.837 190.914L390.872 192ZM372.072 136.6L373.215 137.571L372.072 136.6ZM372.072 93.2L370.929 94.1715L370.935 94.1786L370.941 94.1857L372.072 93.2ZM335.272 93.2L336.403 94.1857L336.409 94.1786L336.415 94.1715L335.272 93.2ZM335.272 136.6L336.415 135.629L335.272 136.6ZM354.272 202.5C347.165 202.5 340.262 201.842 333.56 200.528L332.983 203.472C339.882 204.825 346.979 205.5 354.272 205.5V202.5ZM333.566 200.529C327.021 199.22 321.087 197.196 315.756 194.465L314.388 197.135C319.99 200.004 326.19 202.113 332.978 203.471L333.566 200.529ZM315.743 194.458C312.781 192.977 311.243 191.198 310.722 189.218L307.821 189.982C308.634 193.069 310.963 195.423 314.401 197.142L315.743 194.458ZM310.736 189.275C310.276 187.206 310.501 185.211 311.429 183.239L308.715 181.961C307.509 184.522 307.201 187.194 307.808 189.925L310.736 189.275ZM311.429 183.239C312.36 181.26 313.727 179.85 315.543 178.942L314.201 176.258C311.751 177.484 309.917 179.406 308.715 181.961L311.429 183.239ZM315.443 178.987C317.261 178.238 319.218 178.308 321.43 179.356L322.714 176.644C319.859 175.292 317.016 175.095 314.301 176.213L315.443 178.987ZM321.401 179.342C327.374 182.328 333.057 184.254 338.444 185.083L338.9 182.117C333.887 181.346 328.503 179.538 322.743 176.658L321.401 179.342ZM338.413 185.078C343.798 186.02 348.423 186.5 352.272 186.5V183.5C348.654 183.5 344.213 183.047 338.93 182.122L338.413 185.078ZM352.272 186.5C361.422 186.5 368.563 184.298 373.412 179.631C378.272 174.953 380.572 168.046 380.572 159.2H377.572C377.572 167.554 375.405 173.547 371.332 177.469C367.247 181.402 360.988 183.5 352.272 183.5V186.5ZM380.572 159.2V145.8H377.572V159.2H380.572ZM377.737 145.116C375.086 150.291 370.98 154.414 365.354 157.483L366.79 160.117C372.897 156.786 377.457 152.242 380.407 146.484L377.737 145.116ZM365.341 157.49C359.848 160.556 353.703 162.1 346.872 162.1V165.1C354.174 165.1 360.829 163.444 366.803 160.11L365.341 157.49ZM346.872 162.1C338.306 162.1 330.919 160.156 324.655 156.321L323.089 158.879C329.891 163.044 337.837 165.1 346.872 165.1V162.1ZM324.674 156.332C318.388 152.356 313.504 146.838 310.018 139.739L307.325 141.061C311.04 148.628 316.289 154.578 323.07 158.868L324.674 156.332ZM310.018 139.739C306.537 132.647 304.772 124.348 304.772 114.8H301.772C301.772 124.719 303.607 133.486 307.325 141.061L310.018 139.739ZM304.772 114.8C304.772 105.251 306.537 97.0234 310.014 90.0708L307.33 88.7292C303.607 96.1766 301.772 104.882 301.772 114.8H304.772ZM310.018 90.061C313.502 82.9653 318.381 77.5208 324.655 73.6793L323.089 71.1207C316.296 75.2792 311.042 81.1681 307.325 88.739L310.018 90.061ZM324.674 73.6676C330.935 69.7063 338.316 67.7 346.872 67.7V64.7C337.828 64.7 329.875 66.8271 323.07 71.1324L324.674 73.6676ZM346.872 67.7C353.714 67.7 359.867 69.1824 365.364 72.1227L366.779 69.4773C360.81 66.2843 354.163 64.7 346.872 64.7V67.7ZM365.364 72.1227C370.85 75.0568 374.815 79.0404 377.33 84.0708L380.014 82.7292C377.195 77.0929 372.76 72.6765 366.779 69.4773L365.364 72.1227ZM380.172 83.4V79.2H377.172V83.4H380.172ZM380.172 79.2C380.172 75.3139 381.172 72.6216 382.933 70.8607L380.811 68.7393C378.306 71.2451 377.172 74.8194 377.172 79.2H380.172ZM382.9 70.8923C384.825 69.0806 387.49 68.1 391.072 68.1V65.1C386.92 65.1 383.452 66.2528 380.844 68.7077L382.9 70.8923ZM391.072 68.1C394.968 68.1 397.616 69.0879 399.303 70.8021C400.994 72.5208 401.972 75.2252 401.972 79.2H404.972C404.972 74.7748 403.883 71.1792 401.441 68.6979C398.995 66.2121 395.443 65.1 391.072 65.1V68.1ZM401.972 79.2V156.2H404.972V79.2H401.972ZM401.972 156.2C401.972 171.812 397.844 183.289 389.837 190.914L391.906 193.086C400.7 184.711 404.972 172.321 404.972 156.2H401.972ZM389.837 190.914C381.808 198.561 370.035 202.5 354.272 202.5V205.5C370.509 205.5 383.136 201.439 391.906 193.086L389.837 190.914ZM353.672 146.1C361.793 146.1 368.364 143.278 373.215 137.571L370.929 135.629C366.713 140.589 361.017 143.1 353.672 143.1V146.1ZM373.215 137.571C378.043 131.891 380.372 124.242 380.372 114.8H377.372C377.372 123.758 375.168 130.642 370.929 135.629L373.215 137.571ZM380.372 114.8C380.372 105.36 378.044 97.7674 373.203 92.2143L370.941 94.1857C375.167 99.0326 377.372 105.84 377.372 114.8H380.372ZM373.215 92.2285C368.364 86.5222 361.793 83.7 353.672 83.7V86.7C361.017 86.7 366.713 89.2111 370.929 94.1715L373.215 92.2285ZM353.672 83.7C345.55 83.7 338.979 86.5222 334.129 92.2285L336.415 94.1715C340.631 89.2111 346.327 86.7 353.672 86.7V83.7ZM334.141 92.2143C329.3 97.7674 326.972 105.36 326.972 114.8H329.972C329.972 105.84 332.177 99.0326 336.403 94.1857L334.141 92.2143ZM326.972 114.8C326.972 124.242 329.301 131.891 334.129 137.571L336.415 135.629C332.176 130.642 329.972 123.758 329.972 114.8H326.972ZM334.129 137.571C338.979 143.278 345.55 146.1 353.672 146.1V143.1C346.327 143.1 340.631 140.589 336.415 135.629L334.129 137.571ZM451.975 143.4L450.826 144.365L451.975 143.4ZM481.775 141.6L482.867 142.628L482.875 142.62L482.882 142.612L481.775 141.6ZM488.775 151.4H490.275V145.909L487.483 150.637L488.775 151.4ZM458.775 166.5C447.054 166.5 438.524 163.22 432.895 156.902C427.236 150.552 424.275 140.875 424.275 127.6H421.275C421.275 141.258 424.314 151.782 430.655 158.898C437.026 166.047 446.496 169.5 458.775 169.5V166.5ZM424.275 127.6V79.2H421.275V127.6H424.275ZM424.275 79.2C424.275 75.2252 425.253 72.5208 426.944 70.8021C428.631 69.0879 431.279 68.1 435.175 68.1V65.1C430.804 65.1 427.252 66.2121 424.806 68.6979C422.364 71.1792 421.275 74.7748 421.275 79.2H424.275ZM435.175 68.1C439.144 68.1 441.845 69.0912 443.564 70.8107C445.284 72.5301 446.275 75.2312 446.275 79.2H449.275C449.275 74.7688 448.166 71.1699 445.686 68.6893C443.205 66.2088 439.606 65.1 435.175 65.1V68.1ZM446.275 79.2V128H449.275V79.2H446.275ZM446.275 128C446.275 135.089 447.699 140.641 450.826 144.365L453.124 142.435C450.651 139.492 449.275 134.777 449.275 128H446.275ZM450.826 144.365C454.014 148.159 458.987 149.9 465.375 149.9V146.9C459.496 146.9 455.536 145.307 453.124 142.435L450.826 144.365ZM465.375 149.9C472.422 149.9 478.295 147.486 482.867 142.628L480.683 140.572C476.721 144.781 471.661 146.9 465.375 146.9V149.9ZM482.882 142.612C487.451 137.615 489.675 131.095 489.675 123.2H486.675C486.675 130.505 484.633 136.251 480.668 140.588L482.882 142.612ZM489.675 123.2V79.2H486.675V123.2H489.675ZM489.675 79.2C489.675 75.2252 490.653 72.5208 492.344 70.8021C494.031 69.0879 496.679 68.1 500.575 68.1V65.1C496.204 65.1 492.652 66.2121 490.206 68.6979C487.764 71.1792 486.675 74.7748 486.675 79.2H489.675ZM500.575 68.1C504.544 68.1 507.245 69.0912 508.964 70.8107C510.684 72.5301 511.675 75.2312 511.675 79.2H514.675C514.675 74.7688 513.566 71.1699 511.086 68.6893C508.605 66.2088 505.006 65.1 500.575 65.1V68.1ZM511.675 79.2V154.8H514.675V79.2H511.675ZM511.675 154.8C511.675 158.853 510.708 161.614 509.039 163.365C507.383 165.103 504.792 166.1 500.975 166.1V169.1C505.292 169.1 508.8 167.964 511.211 165.435C513.609 162.919 514.675 159.28 514.675 154.8H511.675ZM500.975 166.1C497.158 166.1 494.567 165.103 492.911 163.365C491.242 161.614 490.275 158.853 490.275 154.8H487.275C487.275 159.28 488.341 162.919 490.739 165.435C493.15 167.964 496.658 169.1 500.975 169.1V166.1ZM490.275 154.8V151.4H487.275V154.8H490.275ZM487.483 150.637C481.235 161.221 471.742 166.5 458.775 166.5V169.5C472.741 169.5 483.248 163.712 490.067 152.163L487.483 150.637ZM557.595 83.4H556.095V88.8526L558.884 84.1672L557.595 83.4ZM570.995 70.6L570.312 69.2646L570.306 69.2679L570.299 69.2712L570.995 70.6ZM595.395 91L594.228 91.9425L594.239 91.9558L594.25 91.9689L595.395 91ZM564.595 92.8L563.504 91.771L563.503 91.7719L564.595 92.8ZM545.595 166.1C541.706 166.1 539.061 165.099 537.373 163.356C535.676 161.605 534.695 158.847 534.695 154.8H531.695C531.695 159.286 532.781 162.928 535.218 165.444C537.663 167.968 541.218 169.1 545.595 169.1V166.1ZM534.695 154.8V79.2H531.695V154.8H534.695ZM534.695 79.2C534.695 75.2193 535.659 72.5115 537.323 70.7934C538.978 69.0843 541.572 68.1 545.395 68.1V65.1C541.085 65.1 537.58 66.2157 535.168 68.7066C532.765 71.1885 531.695 74.7807 531.695 79.2H534.695ZM545.395 68.1C549.218 68.1 551.813 69.0843 553.468 70.7934C555.131 72.5115 556.095 75.2193 556.095 79.2H559.095C559.095 74.7807 558.026 71.1885 555.623 68.7066C553.211 66.2157 549.706 65.1 545.395 65.1V68.1ZM556.095 79.2V83.4H559.095V79.2H556.095ZM558.884 84.1672C562.08 78.7979 566.345 74.7292 571.691 71.9287L570.299 69.2712C564.446 72.3374 559.777 76.8021 556.306 82.6328L558.884 84.1672ZM571.679 71.9354C577.18 69.1205 583.343 67.7 590.195 67.7V64.7C582.915 64.7 576.277 66.2129 570.312 69.2646L571.679 71.9354ZM590.195 67.7C601.434 67.7 609.608 70.9539 615.008 77.2285C620.446 83.5462 623.295 93.1807 623.295 106.4H626.295C626.295 92.8193 623.378 82.3538 617.282 75.2715C611.149 68.1461 602.023 64.7 590.195 64.7V67.7ZM623.295 106.4V154.8H626.295V106.4H623.295ZM623.295 154.8C623.295 158.847 622.315 161.605 620.618 163.356C618.93 165.099 616.285 166.1 612.395 166.1V169.1C616.772 169.1 620.327 167.968 622.773 165.444C625.209 162.928 626.295 159.286 626.295 154.8H623.295ZM612.395 166.1C608.433 166.1 605.735 165.095 604.014 163.348C602.29 161.596 601.295 158.841 601.295 154.8H598.295C598.295 159.292 599.401 162.938 601.876 165.452C604.356 167.971 607.958 169.1 612.395 169.1V166.1ZM601.295 154.8V107.6H598.295V154.8H601.295ZM601.295 107.6C601.295 99.8656 599.813 93.8992 596.54 90.0311L594.25 91.9689C596.844 95.0341 598.295 100.134 598.295 107.6H601.295ZM596.562 90.0575C593.387 86.1259 588.481 84.3 582.195 84.3V87.3C587.91 87.3 591.804 88.9408 594.228 91.9425L596.562 90.0575ZM582.195 84.3C574.514 84.3 568.229 86.7595 563.504 91.771L565.687 93.829C569.762 89.5071 575.21 87.3 582.195 87.3V84.3ZM563.503 91.7719C558.919 96.6422 556.695 103.107 556.695 111H559.695C559.695 103.693 561.738 98.0245 565.688 93.828L563.503 91.7719ZM556.695 111V154.8H559.695V111H556.695ZM556.695 154.8C556.695 158.841 555.701 161.596 553.976 163.348C552.256 165.095 549.558 166.1 545.595 166.1V169.1C550.033 169.1 553.635 167.971 556.114 165.452C558.59 162.938 559.695 159.292 559.695 154.8H556.695ZM650.188 87H651.688V85.5H650.188V87ZM650.188 68.2V69.7H651.688V68.2H650.188ZM675.188 68.2H673.688V69.7H675.188V68.2ZM675.188 87V85.5H673.688V87H675.188ZM679.388 142.6L678.259 143.588L679.388 142.6ZM698.987 146.8L699.325 148.262L698.987 146.8ZM703.588 146L703.463 144.505L703.451 144.506L703.438 144.507L703.588 146ZM707.588 147.6L706.466 148.597L706.496 148.629L706.527 148.661L707.588 147.6ZM707.787 161.6L706.413 160.999L706.404 161.021L706.395 161.043L707.787 161.6ZM703.188 165.8L703.629 167.234L703.658 167.225L703.687 167.214L703.188 165.8ZM696.388 167.2L696.175 165.715L696.141 165.72L696.107 165.726L696.388 167.2ZM688.987 166.5C676.281 166.5 667.028 163.357 660.943 157.334C654.86 151.314 651.688 142.165 651.688 129.6H648.688C648.688 142.635 651.982 152.686 658.832 159.466C665.68 166.243 675.827 169.5 688.987 169.5V166.5ZM651.688 129.6V87H648.688V129.6H651.688ZM650.188 85.5H639.787V88.5H650.188V85.5ZM639.787 85.5C636.663 85.5 634.599 84.764 633.315 83.5571C632.048 82.3665 631.287 80.4776 631.287 77.6H628.287C628.287 80.9891 629.193 83.8001 631.26 85.7429C633.31 87.6694 636.245 88.5 639.787 88.5V85.5ZM631.287 77.6C631.287 74.7224 632.048 72.8335 633.315 71.6429C634.599 70.436 636.663 69.7 639.787 69.7V66.7C636.245 66.7 633.31 67.5306 631.26 69.4571C629.193 71.3999 628.287 74.2109 628.287 77.6H631.287ZM639.787 69.7H650.188V66.7H639.787V69.7ZM651.688 68.2V50H648.688V68.2H651.688ZM651.688 50C651.688 46.0312 652.679 43.3301 654.398 41.6107C656.118 39.8912 658.819 38.9 662.787 38.9V35.9C658.356 35.9 654.757 37.0088 652.277 39.4893C649.796 41.9699 648.688 45.5688 648.688 50H651.688ZM662.787 38.9C666.683 38.9 669.331 39.8879 671.018 41.6021C672.71 43.3208 673.688 46.0252 673.688 50H676.688C676.688 45.5748 675.599 41.9791 673.157 39.4979C670.71 37.0121 667.158 35.9 662.787 35.9V38.9ZM673.688 50V68.2H676.688V50H673.688ZM675.188 69.7H696.388V66.7H675.188V69.7ZM696.388 69.7C699.512 69.7 701.576 70.436 702.86 71.6429C704.127 72.8335 704.888 74.7224 704.888 77.6H707.888C707.888 74.2109 706.982 71.3999 704.915 69.4571C702.865 67.5306 699.93 66.7 696.388 66.7V69.7ZM704.888 77.6C704.888 80.4776 704.127 82.3665 702.86 83.5571C701.576 84.764 699.512 85.5 696.388 85.5V88.5C699.93 88.5 702.865 87.6694 704.915 85.7429C706.982 83.8001 707.888 80.9891 707.888 77.6H704.888ZM696.388 85.5H675.188V88.5H696.388V85.5ZM673.688 87V128.2H676.688V87H673.688ZM673.688 128.2C673.688 134.786 675.124 140.005 678.259 143.588L680.516 141.612C678.051 138.795 676.688 134.414 676.688 128.2H673.688ZM678.259 143.588C681.457 147.243 686.497 148.9 692.987 148.9V145.9C686.945 145.9 682.918 144.357 680.516 141.612L678.259 143.588ZM692.987 148.9C695.338 148.9 697.456 148.693 699.325 148.262L698.65 145.338C697.053 145.707 695.17 145.9 692.987 145.9V148.9ZM699.325 148.262C701.015 147.872 702.483 147.618 703.737 147.493L703.438 144.507C702.025 144.649 700.427 144.928 698.65 145.338L699.325 148.262ZM703.712 147.495C704.842 147.401 705.713 147.749 706.466 148.597L708.709 146.603C707.328 145.051 705.533 144.333 703.463 144.505L703.712 147.495ZM706.527 148.661C706.783 148.917 707.093 149.446 707.327 150.444C707.558 151.424 707.688 152.732 707.688 154.4H710.688C710.688 152.601 710.55 151.043 710.248 149.756C709.949 148.488 709.458 147.35 708.648 146.539L706.527 148.661ZM707.688 154.4C707.688 156.89 707.252 159.081 706.413 160.999L709.162 162.201C710.189 159.853 710.688 157.244 710.688 154.4H707.688ZM706.395 161.043C705.775 162.593 704.6 163.711 702.688 164.386L703.687 167.214C706.308 166.289 708.2 164.607 709.18 162.157L706.395 161.043ZM702.746 164.366C701.117 164.868 698.936 165.321 696.175 165.715L696.6 168.685C699.439 168.279 701.791 167.799 703.629 167.234L702.746 164.366ZM696.107 165.726C693.371 166.248 691.001 166.5 688.987 166.5V169.5C691.24 169.5 693.804 169.219 696.668 168.674L696.107 165.726ZM728.145 164L727.461 165.335L727.481 165.345L727.5 165.354L728.145 164ZM715.145 152.8L713.892 153.624L713.9 153.636L713.908 153.648L715.145 152.8ZM716.145 120L717.258 121.005L717.266 120.997L717.274 120.988L716.145 120ZM734.345 110.8L734.02 109.336L734.345 110.8ZM775.145 108V109.5H776.645V108H775.145ZM770.745 89.4L769.685 90.4607L770.745 89.4ZM743.345 86.4L743.043 84.9308L743.034 84.9326L743.345 86.4ZM729.345 91.2L729.97 92.5636L729.972 92.563L729.345 91.2ZM721.345 91.8L720.61 93.1074L720.642 93.1253L720.674 93.1416L721.345 91.8ZM716.945 86.4L715.495 86.7817L715.507 86.8285L715.522 86.8743L716.945 86.4ZM717.345 78.8L715.963 78.2179L715.95 78.2494L715.938 78.2814L717.345 78.8ZM723.545 73.2L724.092 74.5969L724.105 74.5917L724.118 74.5864L723.545 73.2ZM741.145 67.8L740.871 66.3253L740.865 66.3265L741.145 67.8ZM788.545 76.2L787.506 77.2812L787.511 77.2865L787.517 77.2917L788.545 76.2ZM775.545 150.4H777.045L774.16 149.825L775.545 150.4ZM764.745 163.4L765.537 164.674L765.549 164.666L765.562 164.658L764.745 163.4ZM768.545 144L767.469 142.955L767.461 142.964L767.453 142.972L768.545 144ZM775.145 122.4H776.645V120.9H775.145V122.4ZM742.145 125.4L742.689 126.798L742.699 126.794L742.709 126.79L742.145 125.4ZM739.545 146.6L738.534 147.708L739.545 146.6ZM747.145 166.5C740.271 166.5 734.162 165.204 728.79 162.646L727.5 165.354C733.328 168.129 739.887 169.5 747.145 169.5V166.5ZM728.829 162.665C723.565 159.969 719.429 156.395 716.382 151.952L713.908 153.648C717.261 158.538 721.792 162.431 727.461 165.335L728.829 162.665ZM716.399 151.976C713.501 147.567 712.045 142.59 712.045 137H709.045C709.045 143.144 710.656 148.7 713.892 153.624L716.399 151.976ZM712.045 137C712.045 130.06 713.84 124.79 717.258 121.005L715.032 118.995C710.984 123.477 709.045 129.54 709.045 137H712.045ZM717.274 120.988C720.714 117.057 726.43 114.096 734.671 112.264L734.02 109.336C725.461 111.238 719.044 114.41 715.016 119.012L717.274 120.988ZM734.671 112.264C742.918 110.432 754.061 109.5 768.145 109.5V106.5C753.963 106.5 742.573 107.435 734.02 109.336L734.671 112.264ZM768.145 109.5H775.145V106.5H768.145V109.5ZM776.645 108V103.8H773.645V108H776.645ZM776.645 103.8C776.645 96.9675 775.151 91.6839 771.806 88.3393L769.685 90.4607C772.207 92.9828 773.645 97.2992 773.645 103.8H776.645ZM771.806 88.3393C768.453 84.9861 763.024 83.5 755.945 83.5V86.5C762.733 86.5 767.171 87.9473 769.685 90.4607L771.806 88.3393ZM755.945 83.5C751.959 83.5 747.657 83.9809 743.043 84.9308L743.648 87.8692C748.1 86.9525 752.198 86.5 755.945 86.5V83.5ZM743.034 84.9326C738.506 85.8932 733.733 87.5332 728.719 89.837L729.972 92.563C734.824 90.3335 739.385 88.7735 743.657 87.8673L743.034 84.9326ZM728.72 89.8364C725.731 91.2066 723.579 91.2397 722.016 90.4584L720.674 93.1416C723.379 94.4937 726.56 94.1267 729.97 92.5636L728.72 89.8364ZM722.081 90.4926C720.284 89.4819 719.055 87.9853 718.368 85.9257L715.522 86.8743C716.436 89.6147 718.14 91.7181 720.61 93.1074L722.081 90.4926ZM718.396 86.0183C717.81 83.7919 717.922 81.5727 718.753 79.3186L715.938 78.2814C714.902 81.0939 714.747 83.9414 715.495 86.7817L718.396 86.0183ZM718.728 79.3821C719.607 77.2947 721.322 75.6807 724.092 74.5969L722.999 71.8031C719.635 73.1193 717.217 75.2386 715.963 78.2179L718.728 79.3821ZM724.118 74.5864C730.172 72.0858 735.941 70.3183 741.426 69.2735L740.865 66.3265C735.15 67.415 729.185 69.2476 722.973 71.8136L724.118 74.5864ZM741.42 69.2747C747.084 68.2209 752.19 67.7 756.745 67.7V64.7C751.967 64.7 746.673 65.2458 740.871 66.3253L741.42 69.2747ZM756.745 67.7C770.809 67.7 780.961 70.9887 787.506 77.2812L789.585 75.1187C782.263 68.078 771.215 64.7 756.745 64.7V67.7ZM787.517 77.2917C794.034 83.4333 797.445 93.1566 797.445 106.8H800.445C800.445 92.7101 796.923 82.0333 789.574 75.1083L787.517 77.2917ZM797.445 106.8V154.8H800.445V106.8H797.445ZM797.445 154.8C797.445 158.87 796.52 161.642 794.934 163.393C793.373 165.115 790.941 166.1 787.345 166.1V169.1C791.483 169.1 794.851 167.952 797.157 165.407C799.437 162.891 800.445 159.263 800.445 154.8H797.445ZM787.345 166.1C783.676 166.1 781.191 165.111 779.598 163.383C777.985 161.633 777.045 158.864 777.045 154.8H774.045C774.045 159.269 775.073 162.9 777.392 165.417C779.733 167.956 783.148 169.1 787.345 169.1V166.1ZM777.045 154.8V150.4H774.045V154.8H777.045ZM774.16 149.825C772.008 155.014 768.606 159.108 763.929 162.142L765.562 164.658C770.751 161.292 774.549 156.72 776.931 150.975L774.16 149.825ZM763.953 162.126C759.296 165.021 753.714 166.5 747.145 166.5V169.5C754.177 169.5 760.328 167.912 765.537 164.674L763.953 162.126ZM752.345 152.3C759.269 152.3 765.072 149.879 769.638 145.028L767.453 142.972C763.485 147.188 758.488 149.3 752.345 149.3V152.3ZM769.622 145.045C774.321 140.203 776.645 134.082 776.645 126.8H773.645C773.645 133.385 771.57 138.73 767.469 142.955L769.622 145.045ZM776.645 126.8V122.4H773.645V126.8H776.645ZM775.145 120.9H768.345V123.9H775.145V120.9ZM768.345 120.9C755.811 120.9 746.812 121.889 741.582 124.01L742.709 126.79C747.345 124.911 755.813 123.9 768.345 123.9V120.9ZM741.602 124.002C738.985 125.02 736.917 126.517 735.512 128.546C734.106 130.577 733.445 133.024 733.445 135.8H736.445C736.445 133.509 736.985 131.689 737.979 130.254C738.974 128.816 740.506 127.647 742.689 126.798L741.602 124.002ZM733.445 135.8C733.445 140.593 735.136 144.605 738.534 147.708L740.557 145.492C737.822 142.995 736.445 139.807 736.445 135.8H733.445ZM738.534 147.708C741.955 150.831 746.626 152.3 752.345 152.3V149.3C747.132 149.3 743.269 147.969 740.557 145.492L738.534 147.708ZM841.381 122.8L840.192 123.715L840.232 123.766L840.276 123.814L841.381 122.8ZM842.781 98.8L841.413 98.1844L841.407 98.1988L841.401 98.2133L842.781 98.8ZM854.781 81.4L853.674 80.3878L853.668 80.3941L853.663 80.4005L854.781 81.4ZM863.581 69.4L862.25 68.708L862.239 68.7293L862.229 68.7509L863.581 69.4ZM861.381 48.4L860.45 49.5761L861.381 48.4ZM833.181 46.8L833.629 48.2317L833.642 48.2275L833.656 48.223L833.181 46.8ZM820.181 52.6L819.433 51.3001L819.425 51.3048L819.417 51.3096L820.181 52.6ZM810.581 54.8L810.15 56.2367L810.192 56.2492L810.234 56.2592L810.581 54.8ZM804.781 50L806.123 49.3292L804.781 50ZM804.181 42L805.628 42.3947L804.181 42ZM810.581 34.2L811.402 35.4555L811.406 35.4527L810.581 34.2ZM829.381 26L829.764 27.4502L829.777 27.4469L829.79 27.4433L829.381 26ZM871.381 27.2L870.769 28.5696L870.78 28.5742L871.381 27.2ZM886.181 38.8L884.954 39.6624L884.962 39.6734L884.97 39.6842L886.181 38.8ZM887.381 73.4L886.053 72.7027L886.046 72.7159L886.04 72.7292L887.381 73.4ZM872.981 90.8L871.975 89.6872L871.969 89.6933L872.981 90.8ZM855.381 118.8L853.896 118.588L853.889 118.64L853.885 118.693L855.381 118.8ZM852.981 123.4L852.031 122.239L852.004 122.261L851.978 122.285L852.981 123.4ZM835.981 162.8L834.895 163.834L834.908 163.848L834.921 163.861L835.981 162.8ZM835.981 141.6L834.921 140.539L835.981 141.6ZM857.781 141.6L856.669 142.606L856.694 142.634L856.721 142.661L857.781 141.6ZM857.781 162.8L856.695 161.766L856.682 161.779L856.669 161.794L857.781 162.8ZM847.381 123.7C845.191 123.7 843.621 123.024 842.487 121.786L840.276 123.814C842.074 125.776 844.504 126.7 847.381 126.7V123.7ZM842.57 121.885C841.489 120.48 840.881 118.563 840.881 116H837.881C837.881 119.037 838.607 121.653 840.192 123.715L842.57 121.885ZM840.881 116C840.881 110.056 841.979 104.524 844.162 99.3867L841.401 98.2133C839.051 103.743 837.881 109.677 837.881 116H840.881ZM844.149 99.4155C846.465 94.2687 850.361 88.5972 855.9 82.3995L853.663 80.4005C848.001 86.7361 843.897 92.6646 841.413 98.1844L844.149 99.4155ZM855.888 82.4122C860.194 77.7023 863.241 73.576 864.934 70.0491L862.229 68.7509C860.722 71.8906 857.901 75.7643 853.674 80.3878L855.888 82.4122ZM864.912 70.092C866.756 66.5464 867.681 62.7758 867.681 58.8H864.681C864.681 62.2908 863.873 65.587 862.25 68.708L864.912 70.092ZM867.681 58.8C867.681 53.9828 865.903 50.0664 862.312 47.2239L860.45 49.5761C863.26 51.8003 864.681 54.8172 864.681 58.8H867.681ZM862.312 47.2239C858.753 44.4062 853.842 43.1 847.781 43.1V46.1C853.454 46.1 857.609 47.3271 860.45 49.5761L862.312 47.2239ZM847.781 43.1C842.31 43.1 837.281 43.8523 832.707 45.377L833.656 48.223C837.882 46.8143 842.585 46.1 847.781 46.1V43.1ZM832.734 45.3683C828.349 46.7385 823.915 48.7192 819.433 51.3001L820.93 53.8999C825.247 51.4142 829.48 49.5282 833.629 48.2317L832.734 45.3683ZM819.417 51.3096C816 53.3341 813.208 53.8835 810.929 53.3408L810.234 56.2592C813.555 57.0498 817.162 56.1325 820.946 53.8904L819.417 51.3096ZM811.012 53.3633C808.725 52.6771 807.13 51.3439 806.123 49.3292L803.44 50.6708C804.832 53.4561 807.104 55.3229 810.15 56.2367L811.012 53.3633ZM806.123 49.3292C805.11 47.3035 804.912 45.0227 805.628 42.3947L802.734 41.6053C801.851 44.8439 802.052 47.8965 803.44 50.6708L806.123 49.3292ZM805.628 42.3947C806.302 39.9259 808.13 37.5946 811.402 35.4554L809.76 32.9445C806.099 35.3387 803.661 38.2074 802.734 41.6053L805.628 42.3947ZM811.406 35.4527C816.722 31.9518 822.837 29.2802 829.764 27.4502L828.998 24.5497C821.793 26.4531 815.373 29.2481 809.756 32.9472L811.406 35.4527ZM829.79 27.4433C836.746 25.4746 843.274 24.5 849.381 24.5V21.5C842.955 21.5 836.15 22.5254 828.973 24.5567L829.79 27.4433ZM849.381 24.5C857.616 24.5 864.733 25.8725 870.769 28.5695L871.993 25.8305C865.496 22.9275 857.946 21.5 849.381 21.5V24.5ZM870.78 28.5742C876.969 31.2819 881.669 34.9874 884.954 39.6624L887.409 37.9376C883.76 32.7459 878.594 28.7181 871.982 25.8258L870.78 28.5742ZM884.97 39.6842C888.365 44.3371 890.081 49.8205 890.081 56.2H893.081C893.081 49.2462 891.198 43.1296 887.393 37.9158L884.97 39.6842ZM890.081 56.2C890.081 62.095 888.738 67.5885 886.053 72.7027L888.709 74.0972C891.624 68.5448 893.081 62.5716 893.081 56.2H890.081ZM886.04 72.7292C883.49 77.8283 878.84 83.4827 871.975 89.6872L873.987 91.9128C880.989 85.584 885.939 79.6384 888.723 74.0708L886.04 72.7292ZM871.969 89.6933C865.663 95.4627 861.198 100.517 858.684 104.847L861.278 106.353C863.565 102.416 867.767 97.6039 873.994 91.9067L871.969 89.6933ZM858.684 104.847C856.189 109.144 854.591 113.728 853.896 118.588L856.866 119.012C857.505 114.539 858.974 110.322 861.278 106.353L858.684 104.847ZM853.885 118.693C853.782 120.142 853.183 121.297 852.031 122.239L853.931 124.561C855.713 123.103 856.714 121.191 856.877 118.907L853.885 118.693ZM851.978 122.285C851.002 123.164 849.538 123.7 847.381 123.7V126.7C850.025 126.7 852.294 126.036 853.985 124.515L851.978 122.285ZM846.981 165.5C842.783 165.5 839.519 164.217 837.042 161.739L834.921 163.861C838.043 166.983 842.113 168.5 846.981 168.5V165.5ZM837.067 161.766C834.703 159.283 833.481 156.072 833.481 152H830.481C830.481 156.728 831.926 160.717 834.895 163.834L837.067 161.766ZM833.481 152C833.481 148.074 834.694 145.008 837.042 142.661L834.921 140.539C831.935 143.525 830.481 147.392 830.481 152H833.481ZM837.042 142.661C839.519 140.183 842.783 138.9 846.981 138.9V135.9C842.113 135.9 838.043 137.417 834.921 140.539L837.042 142.661ZM846.981 138.9C851.332 138.9 854.485 140.193 856.669 142.606L858.894 140.594C856.011 137.407 851.964 135.9 846.981 135.9V138.9ZM856.721 142.661C859.068 145.008 860.281 148.074 860.281 152H863.281C863.281 147.392 861.828 143.525 858.842 140.539L856.721 142.661ZM860.281 152C860.281 156.072 859.059 159.283 856.695 161.766L858.867 163.834C861.837 160.717 863.281 156.728 863.281 152H860.281ZM856.669 161.794C854.485 164.207 851.332 165.5 846.981 165.5V168.5C851.964 168.5 856.011 166.993 858.894 163.806L856.669 161.794Z" fill="white"/>
<path d="M29 366C19.9333 366 15.4 361.467 15.4 352.4V238.6C15.4 229.533 19.9333 225 29 225H100.4C107.333 225 110.8 228.333 110.8 235C110.8 241.933 107.333 245.4 100.4 245.4H40V284.2H96C102.933 284.2 106.4 287.6 106.4 294.4C106.4 301.2 102.933 304.6 96 304.6H40V345.6H100.4C107.333 345.6 110.8 349 110.8 355.8C110.8 362.6 107.333 366 100.4 366H29ZM139.136 367.6C130.869 367.6 126.736 363.333 126.736 354.8V279.2C126.736 270.8 130.803 266.6 138.936 266.6C147.069 266.6 151.136 270.8 151.136 279.2V283.2C154.069 277.867 158.136 273.733 163.336 270.8C168.536 267.733 174.536 266.2 181.336 266.2C196.003 266.2 205.603 272.6 210.136 285.4C213.203 279.4 217.603 274.733 223.336 271.4C229.069 267.933 235.603 266.2 242.936 266.2C264.936 266.2 275.936 279.6 275.936 306.4V354.8C275.936 363.333 271.736 367.6 263.336 367.6C255.069 367.6 250.936 363.333 250.936 354.8V307.4C250.936 299.933 249.669 294.467 247.136 291C244.736 287.533 240.603 285.8 234.736 285.8C228.203 285.8 223.069 288.133 219.336 292.8C215.603 297.333 213.736 303.667 213.736 311.8V354.8C213.736 363.333 209.603 367.6 201.336 367.6C192.936 367.6 188.736 363.333 188.736 354.8V307.4C188.736 299.933 187.469 294.467 184.936 291C182.536 287.533 178.469 285.8 172.736 285.8C166.203 285.8 161.069 288.133 157.336 292.8C153.603 297.333 151.736 303.667 151.736 311.8V354.8C151.736 363.333 147.536 367.6 139.136 367.6ZM308.127 403.6C299.86 403.6 295.727 399.4 295.727 391V279.2C295.727 270.8 299.793 266.6 307.927 266.6C316.193 266.6 320.327 270.8 320.327 279.2V283.4C323.127 278.2 327.327 274.067 332.927 271C338.527 267.8 344.927 266.2 352.127 266.2C360.66 266.2 368.127 268.267 374.527 272.4C381.06 276.533 386.127 282.4 389.727 290C393.327 297.467 395.127 306.467 395.127 317C395.127 327.4 393.327 336.467 389.727 344.2C386.127 351.8 381.127 357.667 374.727 361.8C368.327 365.933 360.793 368 352.127 368C345.193 368 338.927 366.533 333.327 363.6C327.86 360.533 323.66 356.467 320.727 351.4V391C320.727 399.4 316.527 403.6 308.127 403.6ZM345.127 349C352.593 349 358.593 346.333 363.127 341C367.66 335.533 369.927 327.533 369.927 317C369.927 306.333 367.66 298.4 363.127 293.2C358.593 287.867 352.593 285.2 345.127 285.2C337.66 285.2 331.66 287.867 327.127 293.2C322.593 298.4 320.327 306.333 320.327 317C320.327 327.533 322.593 335.533 327.127 341C331.66 346.333 337.66 349 345.127 349ZM457.848 368C446.782 368 437.248 365.933 429.248 361.8C421.248 357.667 415.048 351.8 410.648 344.2C406.382 336.6 404.248 327.6 404.248 317.2C404.248 307.067 406.315 298.2 410.448 290.6C414.715 283 420.515 277.067 427.848 272.8C435.315 268.4 443.782 266.2 453.248 266.2C467.115 266.2 478.048 270.6 486.048 279.4C494.182 288.2 498.248 300.2 498.248 315.4C498.248 320.333 495.048 322.8 488.648 322.8H428.248C430.115 340.267 440.115 349 458.248 349C461.715 349 465.582 348.6 469.848 347.8C474.248 346.867 478.382 345.333 482.248 343.2C485.715 341.2 488.648 340.6 491.048 341.4C493.448 342.067 495.115 343.467 496.048 345.6C497.115 347.733 497.248 350.133 496.448 352.8C495.782 355.333 493.915 357.533 490.848 359.4C486.182 362.333 480.782 364.533 474.648 366C468.648 367.333 463.048 368 457.848 368ZM454.248 283.2C446.915 283.2 440.982 285.467 436.448 290C431.915 294.533 429.182 300.667 428.248 308.4H477.448C476.915 300.267 474.648 294.067 470.648 289.8C466.782 285.4 461.315 283.2 454.248 283.2ZM557.247 368C546.98 368 538.047 365.933 530.447 361.8C522.847 357.533 516.98 351.533 512.847 343.8C508.714 336.067 506.647 327 506.647 316.6C506.647 306.2 508.714 297.267 512.847 289.8C516.98 282.2 522.847 276.4 530.447 272.4C538.047 268.267 546.98 266.2 557.247 266.2C561.647 266.2 566.38 266.8 571.447 268C576.647 269.2 581.514 271.2 586.047 274C588.714 275.6 590.247 277.667 590.647 280.2C591.18 282.733 590.847 285.067 589.647 287.2C588.58 289.333 586.914 290.867 584.647 291.8C582.514 292.733 580.047 292.4 577.247 290.8C571.114 287.333 565.18 285.6 559.447 285.6C550.78 285.6 544.047 288.333 539.247 293.8C534.58 299.133 532.247 306.8 532.247 316.8C532.247 326.667 534.58 334.467 539.247 340.2C544.047 345.8 550.78 348.6 559.447 348.6C565.18 348.6 571.114 346.933 577.247 343.6C580.047 342 582.514 341.667 584.647 342.6C586.78 343.533 588.314 345.133 589.247 347.4C590.18 349.533 590.38 351.867 589.847 354.4C589.314 356.8 587.78 358.8 585.247 360.4C580.847 363.067 576.18 365 571.247 366.2C566.314 367.4 561.647 368 557.247 368ZM646.63 368C635.563 368 626.03 365.933 618.03 361.8C610.03 357.667 603.83 351.8 599.43 344.2C595.163 336.6 593.03 327.6 593.03 317.2C593.03 307.067 595.096 298.2 599.23 290.6C603.496 283 609.296 277.067 616.63 272.8C624.096 268.4 632.563 266.2 642.03 266.2C655.896 266.2 666.83 270.6 674.83 279.4C682.963 288.2 687.03 300.2 687.03 315.4C687.03 320.333 683.83 322.8 677.43 322.8H617.03C618.896 340.267 628.896 349 647.03 349C650.496 349 654.363 348.6 658.63 347.8C663.03 346.867 667.163 345.333 671.03 343.2C674.496 341.2 677.43 340.6 679.83 341.4C682.23 342.067 683.896 343.467 684.83 345.6C685.896 347.733 686.03 350.133 685.23 352.8C684.563 355.333 682.696 357.533 679.63 359.4C674.963 362.333 669.563 364.533 663.43 366C657.43 367.333 651.83 368 646.63 368ZM643.03 283.2C635.696 283.2 629.763 285.467 625.23 290C620.696 294.533 617.963 300.667 617.03 308.4H666.23C665.696 300.267 663.43 294.067 659.43 289.8C655.563 285.4 650.096 283.2 643.03 283.2ZM713.628 367.6C705.361 367.6 701.228 363.333 701.228 354.8V279.2C701.228 270.8 705.295 266.6 713.428 266.6C721.561 266.6 725.628 270.8 725.628 279.2V283.2C728.561 277.867 732.628 273.733 737.828 270.8C743.028 267.733 749.028 266.2 755.828 266.2C770.495 266.2 780.095 272.6 784.628 285.4C787.695 279.4 792.095 274.733 797.828 271.4C803.561 267.933 810.095 266.2 817.428 266.2C839.428 266.2 850.428 279.6 850.428 306.4V354.8C850.428 363.333 846.228 367.6 837.828 367.6C829.561 367.6 825.428 363.333 825.428 354.8V307.4C825.428 299.933 824.161 294.467 821.628 291C819.228 287.533 815.095 285.8 809.228 285.8C802.695 285.8 797.561 288.133 793.828 292.8C790.095 297.333 788.228 303.667 788.228 311.8V354.8C788.228 363.333 784.095 367.6 775.828 367.6C767.428 367.6 763.228 363.333 763.228 354.8V307.4C763.228 299.933 761.961 294.467 759.428 291C757.028 287.533 752.961 285.8 747.228 285.8C740.695 285.8 735.561 288.133 731.828 292.8C728.095 297.333 726.228 303.667 726.228 311.8V354.8C726.228 363.333 722.028 367.6 713.628 367.6ZM914.819 368C904.685 368 895.885 365.933 888.419 361.8C880.952 357.667 875.152 351.8 871.019 344.2C866.885 336.467 864.819 327.4 864.819 317C864.819 306.6 866.885 297.6 871.019 290C875.152 282.4 880.952 276.533 888.419 272.4C895.885 268.267 904.685 266.2 914.819 266.2C924.952 266.2 933.752 268.267 941.219 272.4C948.685 276.533 954.485 282.4 958.619 290C962.752 297.6 964.819 306.6 964.819 317C964.819 327.4 962.752 336.467 958.619 344.2C954.485 351.8 948.685 357.667 941.219 361.8C933.752 365.933 924.952 368 914.819 368ZM914.819 349C922.285 349 928.285 346.333 932.819 341C937.352 335.533 939.619 327.533 939.619 317C939.619 306.333 937.352 298.4 932.819 293.2C928.285 287.867 922.285 285.2 914.819 285.2C907.352 285.2 901.352 287.867 896.819 293.2C892.285 298.4 890.019 306.333 890.019 317C890.019 327.533 892.285 335.533 896.819 341C901.352 346.333 907.352 349 914.819 349ZM1015.25 368C1009.52 368 1003.45 367.4 997.053 366.2C990.653 365 984.92 362.933 979.853 360C977.053 358.4 975.32 356.467 974.653 354.2C973.986 351.8 974.053 349.6 974.853 347.6C975.786 345.467 977.253 343.933 979.253 343C981.386 342.067 983.853 342.267 986.653 343.6C991.986 346.133 996.986 347.933 1001.65 349C1006.32 349.933 1010.92 350.4 1015.45 350.4C1021.85 350.4 1026.59 349.333 1029.65 347.2C1032.85 344.933 1034.45 342 1034.45 338.4C1034.45 332.8 1030.32 329.2 1022.05 327.6L1002.05 323.8C985.12 320.6 976.653 311.8 976.653 297.4C976.653 291 978.386 285.467 981.853 280.8C985.453 276.133 990.386 272.533 996.653 270C1002.92 267.467 1010.12 266.2 1018.25 266.2C1029.99 266.2 1040.45 268.8 1049.65 274C1052.19 275.333 1053.65 277.2 1054.05 279.6C1054.59 281.867 1054.32 284.067 1053.25 286.2C1052.32 288.2 1050.79 289.667 1048.65 290.6C1046.52 291.4 1044.05 291.133 1041.25 289.8C1037.12 287.667 1033.12 286.133 1029.25 285.2C1025.52 284.267 1021.92 283.8 1018.45 283.8C1011.92 283.8 1007.05 284.933 1003.85 287.2C1000.79 289.467 999.253 292.467 999.253 296.2C999.253 302.067 1003.05 305.667 1010.65 307L1030.65 310.8C1039.32 312.4 1045.85 315.333 1050.25 319.6C1054.79 323.867 1057.05 329.6 1057.05 336.8C1057.05 346.533 1053.25 354.2 1045.65 359.8C1038.05 365.267 1027.92 368 1015.25 368ZM1083.11 325.4C1077.91 325.4 1075.11 322.333 1074.71 316.2L1068.71 239.8C1068.31 234.867 1069.38 230.933 1071.91 228C1074.44 224.933 1078.18 223.4 1083.11 223.4C1087.91 223.4 1091.51 224.933 1093.91 228C1096.44 230.933 1097.51 234.867 1097.11 239.8L1091.11 316.2C1090.71 322.333 1088.04 325.4 1083.11 325.4ZM1083.11 367C1078.58 367 1074.91 365.6 1072.11 362.8C1069.44 360 1068.11 356.4 1068.11 352C1068.11 347.733 1069.44 344.267 1072.11 341.6C1074.91 338.8 1078.58 337.4 1083.11 337.4C1087.78 337.4 1091.38 338.8 1093.91 341.6C1096.58 344.267 1097.91 347.733 1097.91 352C1097.91 356.4 1096.58 360 1093.91 362.8C1091.38 365.6 1087.78 367 1083.11 367Z" fill="white"/>
</svg>
